<svg width="142" height="61" viewBox="0 0 142 61" fill="none" xmlns="http://www.w3.org/2000/svg">
<path d="M31.9519 39.3489C33.783 39.3489 34.9415 39.0121 35.4273 38.3385C35.9505 37.6649 36.2121 36.5236 36.2121 34.9144V24.0247H32.6245V22.7898H48.7687V24.0247H46.5825V39.8541H45.7417C45.069 38.9185 44.116 38.4508 42.8828 38.4508C42.3596 38.4508 40.79 38.7876 38.1741 39.4612C35.5955 40.1347 33.3906 40.4715 31.5595 40.4715C25.468 40.4715 20.7407 38.825 17.3773 35.5319C14.0513 32.2388 12.3883 27.2991 12.3883 20.7129C12.3883 14.0893 14.126 8.9812 17.6015 5.38872C21.1144 1.79624 25.8231 0 31.7276 0C34.0073 0 36.2869 0.299373 38.5665 0.898119C40.8835 1.45945 42.2288 1.74011 42.6025 1.74011C42.9762 1.74011 43.2565 1.66527 43.4434 1.51558C43.6302 1.32847 43.8357 1.0291 44.06 0.617456H44.6766L45.125 12.7982H44.116C42.2849 9.16831 40.435 6.32426 38.5665 4.26607C36.7353 2.17046 34.6799 1.12265 32.4003 1.12265C26.6826 1.12265 23.8237 6.71719 23.8237 17.9063V22.3407C23.8237 27.954 24.5151 32.2013 25.8978 35.0828C27.3179 37.9269 29.3359 39.3489 31.9519 39.3489Z" fill="white"/>
<path d="M92.305 19.5902C92.305 27.2991 90.1375 32.6691 85.8025 35.7003C81.8038 38.5069 76.3103 39.9102 69.322 39.9102H53.4581V38.8437H57.1578V1.68397H53.4581V0.617456H70.7794C77.9546 0.617456 83.336 2.09561 86.9236 5.05192C90.5112 7.97082 92.305 12.8169 92.305 19.5902ZM68.0888 38.8437H70.2189C73.9933 38.8437 76.684 37.5152 78.2909 34.8583C79.9353 32.1639 80.7574 27.6733 80.7574 21.3865V18.1308C80.7574 9.71092 79.1505 4.64029 75.9366 2.91889C74.4044 2.09561 72.2369 1.68397 69.4341 1.68397H68.0888V38.8437Z" fill="white"/>
<path d="M116.827 38.8437L112.735 26.7191H101.636L97.3194 38.8437H101.524V39.9102H92.947V38.8437H95.5816L109.876 0.280662H114.473L128.599 38.8437H131.177V39.9102H112.847V38.8437H116.827ZM107.409 10.7774L102.14 25.4842H112.286L107.409 10.7774Z" fill="white"/>
<path d="M8.38438 60.5189C9.16917 60.5189 9.66567 60.3745 9.87387 60.0858C10.0981 59.7972 10.2102 59.308 10.2102 58.6184V53.9514H8.67267V53.4221H15.5916V53.9514H14.6547V60.7354H14.2943C14.006 60.3344 13.5976 60.134 13.0691 60.134C12.8448 60.134 12.1722 60.2783 11.0511 60.567C9.94595 60.8557 9.001 61 8.21622 61C5.60561 61 3.57958 60.2943 2.13814 58.883C0.712713 57.4717 0 55.3547 0 52.532C0 49.6933 0.744745 47.5041 2.23423 45.9645C3.73974 44.4249 5.75776 43.6551 8.28829 43.6551C9.26527 43.6551 10.2422 43.7834 11.2192 44.04C12.2122 44.2805 12.7888 44.4008 12.949 44.4008C13.1091 44.4008 13.2292 44.3687 13.3093 44.3046C13.3894 44.2244 13.4775 44.0961 13.5736 43.9197H13.8378L14.03 49.14H13.5976C12.8128 47.5843 12.02 46.3655 11.2192 45.4834C10.4344 44.5853 9.55355 44.1362 8.57658 44.1362C6.12613 44.1362 4.9009 46.5339 4.9009 51.3292V53.2297C4.9009 55.6353 5.1972 57.4556 5.78979 58.6906C6.3984 59.9094 7.26326 60.5189 8.38438 60.5189Z" fill="white"/>
<path d="M25.3611 49.982C24.7685 49.982 24.248 50.3669 23.7996 51.1367C23.3511 51.9065 23.1269 52.8207 23.1269 53.8792V60.3264H24.8326V60.7594H17.3371V60.3264H18.6584V49.7414H17.3371V49.3084H23.1269V51.6179C23.3351 50.7999 23.7355 50.1744 24.3281 49.7414C24.9207 49.2924 25.5933 49.0678 26.3461 49.0678C27.0989 49.0678 27.7075 49.2843 28.1719 49.7174C28.6524 50.1343 28.8926 50.7358 28.8926 51.5216C28.8926 52.2914 28.7165 52.8848 28.3641 53.3018C28.0118 53.7188 27.4672 53.9273 26.7305 53.9273C26.0098 53.9273 25.4732 53.6867 25.1209 53.2056C24.7845 52.7245 24.7445 52.0589 25.0008 51.2089H25.8656C26.266 50.391 26.0978 49.982 25.3611 49.982Z" fill="white"/>
<path d="M36.1535 61C34.0875 61 32.5339 60.4708 31.4929 59.4123C30.4678 58.3377 29.9553 56.8542 29.9553 54.9617C29.9553 53.0532 30.5319 51.5938 31.6851 50.5834C32.8542 49.573 34.3357 49.0678 36.1295 49.0678C39.7651 49.0678 41.5109 50.8961 41.3667 54.5528H34.592V55.491C34.592 57.0627 34.7922 58.2495 35.1926 59.0514C35.593 59.8533 36.2897 60.2542 37.2827 60.2542C39.1405 60.2542 40.3577 59.2599 40.9343 57.2712L41.3667 57.3434C41.0624 58.4981 40.5099 59.3962 39.7091 60.0377C38.9243 60.6792 37.7391 61 36.1535 61ZM34.616 54.0716H37.0905V52.8929C37.0905 51.5938 37.0104 50.7117 36.8502 50.2466C36.7061 49.7655 36.4018 49.5249 35.9373 49.5249C35.4889 49.5249 35.1525 49.7815 34.9283 50.2947C34.7201 50.7919 34.616 51.6579 34.616 52.8929V54.0716Z" fill="white"/>
<path d="M49.2616 61C47.1956 61 45.642 60.4708 44.601 59.4123C43.5759 58.3377 43.0634 56.8542 43.0634 54.9617C43.0634 53.0532 43.64 51.5938 44.7932 50.5834C45.9623 49.573 47.4438 49.0678 49.2376 49.0678C52.8732 49.0678 54.619 50.8961 54.4748 54.5528H47.7001V55.491C47.7001 57.0627 47.9003 58.2495 48.3007 59.0514C48.7011 59.8533 49.3978 60.2542 50.3908 60.2542C52.2486 60.2542 53.4658 59.2599 54.0424 57.2712L54.4748 57.3434C54.1705 58.4981 53.618 59.3962 52.8172 60.0377C52.0324 60.6792 50.8472 61 49.2616 61ZM47.7241 54.0716H50.1986V52.8929C50.1986 51.5938 50.1185 50.7117 49.9583 50.2466C49.8142 49.7655 49.5099 49.5249 49.0454 49.5249C48.597 49.5249 48.2606 49.7815 48.0364 50.2947C47.8282 50.7919 47.7241 51.6579 47.7241 52.8929V54.0716Z" fill="white"/>
<path d="M56.0995 49.3084H61.8893V51.5216C62.1455 50.7839 62.5379 50.1905 63.0664 49.7414C63.595 49.2924 64.3958 49.0678 65.4688 49.0678C67.9513 49.0678 69.1926 50.407 69.1926 53.0853V60.3264H70.5379V60.7594H63.7391V60.3264H64.7241V52.508C64.7241 51.5457 64.66 50.9282 64.5319 50.6556C64.4038 50.3669 64.1715 50.2226 63.8352 50.2226C63.3227 50.2226 62.8662 50.5594 62.4658 51.2329C62.0815 51.9065 61.8893 52.7245 61.8893 53.6867V60.3264H62.9223V60.7594H56.0995V60.3264H57.4208V49.7414H56.0995V49.3084Z" fill="white"/>
<path d="M71.8403 43.9197H79.3358V44.3768H77.9424V51L82.7232 50.9355V44.3768H81.3057V43.9197H88.8253V44.3768H87.4079V60.3024H88.8253V60.7594H81.3057V60.3024H82.7232V52.4598H77.9424V60.3024H79.3358V60.7594H71.8403V60.3024H73.2577V44.3768H71.8403V43.9197Z" fill="white"/>
<path d="M98.0511 56.0202V53.9754C98.0511 52.4197 97.963 51.2891 97.7868 50.5834C97.6266 49.8617 97.2422 49.5009 96.6336 49.5009C96.2813 49.5009 95.993 49.6051 95.7688 49.8136C95.5606 50.006 95.4084 50.3348 95.3123 50.7999C95.1682 51.5216 95.0961 52.6202 95.0961 54.0957V55.9721C95.0961 57.7203 95.1442 58.7707 95.2402 59.1236C95.3524 59.4764 95.4645 59.7651 95.5766 59.9896C95.7528 60.3745 96.0971 60.567 96.6096 60.567C97.2342 60.567 97.6426 60.2061 97.8348 59.4844C97.979 58.9712 98.0511 57.8165 98.0511 56.0202ZM96.5616 61C94.5596 61 93.0461 60.4868 92.021 59.4604C90.996 58.4339 90.4835 56.9665 90.4835 55.058C90.4835 53.1334 91.028 51.6579 92.1171 50.6315C93.2222 49.5891 94.7678 49.0678 96.7538 49.0678C98.7397 49.0678 100.221 49.549 101.198 50.5112C102.175 51.4575 102.664 52.9089 102.664 54.8655C102.664 58.9552 100.63 61 96.5616 61Z" fill="white"/>
<path d="M118.11 60.7594H112.633L112.369 59.0033C112.112 59.6448 111.728 60.142 111.215 60.4948C110.719 60.8316 109.974 61 108.981 61C106.499 61 105.258 59.6608 105.258 56.9825V49.7414H103.912V49.3084H109.726V57.5599C109.726 58.5222 109.79 59.1556 109.918 59.4604C110.062 59.7651 110.335 59.9174 110.735 59.9174C111.151 59.9174 111.52 59.6689 111.84 59.1717C112.16 58.6745 112.321 57.9849 112.321 57.1028V49.7414H111.215V49.3084H116.789V60.3264H118.11V60.7594Z" fill="white"/>
<path d="M119.875 61V56.6938H120.164C120.58 58.0891 121.141 59.0674 121.845 59.6288C122.55 60.1901 123.431 60.4708 124.488 60.4708C126.122 60.4708 126.938 59.9495 126.938 58.9071C126.938 58.458 126.738 58.1212 126.338 57.8967C125.713 57.5438 124.912 57.2712 123.935 57.0787C122.846 56.7901 121.933 56.4052 121.197 55.924C120.316 55.3467 119.875 54.4325 119.875 53.1815C119.875 51.9306 120.26 50.9362 121.029 50.1985C121.797 49.4447 122.822 49.0678 124.104 49.0678C124.888 49.0678 125.697 49.2523 126.53 49.6211C126.834 49.7494 127.067 49.8136 127.227 49.8136C127.387 49.8136 127.523 49.7575 127.635 49.6452C127.747 49.5329 127.883 49.3244 128.044 49.0197H128.308V52.7004H128.02C127.203 50.6155 125.937 49.573 124.224 49.573C123.471 49.573 122.91 49.7093 122.542 49.982C122.174 50.2386 121.989 50.5674 121.989 50.9683C121.989 51.2089 122.046 51.4013 122.158 51.5457C122.27 51.674 122.358 51.7702 122.422 51.8344C122.486 51.8985 122.59 51.9707 122.734 52.0509C122.878 52.115 122.998 52.1712 123.095 52.2193C123.191 52.2513 123.335 52.2995 123.527 52.3636C123.735 52.4278 123.887 52.4679 123.983 52.4839C125.073 52.7565 125.857 52.9971 126.338 53.2056C126.818 53.3981 127.275 53.6386 127.707 53.9273C128.588 54.5367 129.029 55.5231 129.029 56.8863C129.029 58.2335 128.628 59.2599 127.827 59.9656C127.027 60.6552 125.929 61 124.536 61C123.543 61 122.582 60.7675 121.653 60.3024C121.461 60.1741 121.309 60.1099 121.197 60.1099C120.844 60.1099 120.5 60.4066 120.164 61H119.875Z" fill="white"/>
<path d="M136.779 61C134.712 61 133.159 60.4708 132.118 59.4123C131.093 58.3377 130.58 56.8542 130.58 54.9617C130.58 53.0532 131.157 51.5938 132.31 50.5834C133.479 49.573 134.961 49.0678 136.755 49.0678C140.39 49.0678 142.136 50.8961 141.992 54.5528H135.217V55.491C135.217 57.0627 135.417 58.2495 135.818 59.0514C136.218 59.8533 136.915 60.2542 137.908 60.2542C139.766 60.2542 140.983 59.2599 141.559 57.2712L141.992 57.3434C141.687 58.4981 141.135 59.3962 140.334 60.0377C139.549 60.6792 138.364 61 136.779 61ZM135.241 54.0716H137.715V52.8929C137.715 51.5938 137.635 50.7117 137.475 50.2466C137.331 49.7655 137.027 49.5249 136.562 49.5249C136.114 49.5249 135.778 49.7815 135.553 50.2947C135.345 50.7919 135.241 51.6579 135.241 52.8929V54.0716Z" fill="white"/>
</svg>
